<svg height="60" viewBox="0 0 1792 7168" width="15" xmlns="http://www.w3.org/2000/svg" xmlns:xlink="http://www.w3.org/1999/xlink"><defs><g id="a"><path d="m1037 1395 102-102q19-19 19-45t-19-45l-307-307 307-307q19-19 19-45t-19-45l-102-102q-19-19-45-19t-45 19l-454 454q-19 19-19 45t19 45l454 454q19 19 45 19t45-19zm627-499q0 209-103 385.5t-279.5 279.5-385.5 103-385.5-103-279.5-279.5-103-385.5 103-385.5 279.5-279.5 385.5-103 385.5 103 279.5 279.5 103 385.5z"/></g><g id="b"><path d="m845 1395 454-454q19-19 19-45t-19-45l-454-454q-19-19-45-19t-45 19l-102 102q-19 19-19 45t19 45l307 307-307 307q-19 19-19 45t19 45l102 102q19 19 45 19t45-19zm819-499q0 209-103 385.5t-279.5 279.5-385.5 103-385.5-103-279.5-279.5-103-385.5 103-385.5 279.5-279.5 385.5-103 385.5 103 279.5 279.5 103 385.5z"/></g></defs><use fill="#333" xlink:href="#a"/><use xlink:href="#a" y="1792"/><use fill="#333" xlink:href="#b" y="3584"/><use xlink:href="#b" y="5376"/></svg>